<svg width="1409" height="841" viewBox="0 0 1409 841" fill="none" xmlns="http://www.w3.org/2000/svg">
<path fill-rule="evenodd" clip-rule="evenodd" d="M0 420.5C0 188.264 188.264 0 420.5 0H1600.5C1670.99 0 1737.43 17.3451 1795.78 48H1757C1747.06 48 1739 56.0588 1739 66C1739 75.9412 1747.06 84 1757 84H1852.71C1869.36 96.5024 1885.06 110.212 1899.67 125H1998C2010.7 125 2021 135.297 2021 148C2021 160.703 2010.7 171 1998 171H1939.02C1990.54 240.793 2021 327.09 2021 420.5C2021 528.278 1980.45 626.586 1913.78 701H1830C1824.48 701 1820 705.477 1820 711C1820 716.523 1824.48 721 1830 721H1894.64C1867 748.063 1835.64 771.342 1801.39 790H1857.5C1863.3 790 1868 794.701 1868 800.5C1868 806.299 1863.3 811 1857.5 811H1756.78C1708.47 830.353 1655.73 841 1600.5 841H420.5C188.264 841 0 652.736 0 420.5Z" transform="translate(-612)" fill="#C4C4C4"/>
<path fill-rule="evenodd" clip-rule="evenodd" d="M0 420.5C0 188.264 188.264 0 420.5 0H1600.5C1670.99 0 1737.43 17.3451 1795.78 48H1757C1747.06 48 1739 56.0588 1739 66C1739 75.9412 1747.06 84 1757 84H1852.71C1869.36 96.5024 1885.06 110.212 1899.67 125H1998C2010.7 125 2021 135.297 2021 148C2021 160.703 2010.7 171 1998 171H1939.02C1990.54 240.793 2021 327.09 2021 420.5C2021 528.278 1980.45 626.586 1913.78 701H1830C1824.48 701 1820 705.477 1820 711C1820 716.523 1824.48 721 1830 721H1894.64C1867 748.063 1835.64 771.342 1801.39 790H1857.5C1863.3 790 1868 794.701 1868 800.5C1868 806.299 1863.3 811 1857.5 811H1756.78C1708.47 830.353 1655.73 841 1600.5 841H420.5C188.264 841 0 652.736 0 420.5Z" transform="translate(-612)" fill="url(#paint0_linear)"/>
<defs>
<linearGradient id="paint0_linear" x2="1" gradientUnits="userSpaceOnUse" gradientTransform="translate(2021) scale(2021 841) rotate(90)">
<stop stop-color="#5067FA"/>
<stop offset="1" stop-color="#7828F0"/>
</linearGradient>
</defs>
</svg>
